# xmcd
#
# Track frame offsets:
#	182
#	19670
#	45787
#	65422
#	85832
#	104962
#	121492
#	143252
#	168527
#	189777
#	209912
#	229845
#
# Disc length: 3315
#
# Revision: 3
# Processed by: cddbd v1.5.1PL0 Copyright (c) Steve Scherf et al.
# Submitted via: EasyCDDAExtractor 4.6.0.1
# Normalized: r2:TDELIM( - )
#
DISCID=a00cf10c
DTITLE=Posse - Origonal Motion Picture Soundtrack
DYEAR=1900
DGENRE=misc
TTITLE0=Intelligent Hoodlum - The posse shoot em up
TTITLE1=Tone Loc - Posse love
TTITLE2=B.R.O.T.I. - One night of freedom
TTITLE3=Melvin van Peebles - Posse don't play that
TTITLE4=Top Choice Clique - I think to myself
TTITLE5=Michael Colombier - Jesse
TTITLE6=Vesta - Tell me
TTITLE7=David-David - Free at last
TTITLE8=Salli Richardson - If I knew you at all
TTITLE9=The Sounds Of Blackness - Freemanville (homecoming)
TTITLE10=Vesta - Ride of your life
TTITLE11=The Neville Brothers - Let the hammer fall
EXTD=
EXTT0=
EXTT1=
EXTT2=
EXTT3=
EXTT4=
EXTT5=
EXTT6=
EXTT7=
EXTT8=
EXTT9=
EXTT10=
EXTT11=
PLAYORDER=
